<?xml version="1.0" encoding="UTF-8" standalone="no"?>
<!-- Created with Inkscape (http://www.inkscape.org/) -->

<svg
   width="297mm"
   height="210mm"
   viewBox="0 0 297 210"
   version="1.1"
   id="svg5"
   inkscape:version="1.2-dev (ff617d42, 2021-10-26)"
   sodipodi:docname="background.svg"
   xmlns:inkscape="http://www.inkscape.org/namespaces/inkscape"
   xmlns:sodipodi="http://sodipodi.sourceforge.net/DTD/sodipodi-0.dtd"
   xmlns="http://www.w3.org/2000/svg"
   xmlns:svg="http://www.w3.org/2000/svg">
  <sodipodi:namedview
     id="namedview7"
     pagecolor="#ffffff"
     bordercolor="#000000"
     borderopacity="0.25"
     inkscape:pageshadow="2"
     inkscape:pageopacity="0.0"
     inkscape:pagecheckerboard="0"
     inkscape:blackoutopacity="0.0"
     inkscape:document-units="mm"
     showgrid="false"
     inkscape:zoom="0.70199214"
     inkscape:cx="718.66901"
     inkscape:cy="411.68552"
     inkscape:window-width="1920"
     inkscape:window-height="986"
     inkscape:window-x="-11"
     inkscape:window-y="-11"
     inkscape:window-maximized="1"
     inkscape:current-layer="layer1"
     width="197mm" />
  <defs
     id="defs2" />
  <g
     inkscape:label="Livello 1"
     inkscape:groupmode="layer"
     id="layer1">
    <g
       id="g557"
       transform="matrix(0.31405192,0,0,0.31822764,-1.1142118,39.99366)">
      <rect
         x="0"
         y="0"
         width="960"
         height="540"
         fill="#001220"
         id="rect531" />
      <path
         d="m 0,332 22.8,4 c 22.9,4 68.5,12 114.2,15.3 45.7,3.4 91.3,2 137,-4.6 45.7,-6.7 91.3,-18.7 137.2,-23.2 45.8,-4.5 91.8,-1.5 137.6,4.3 45.9,5.9 91.5,14.5 137.2,11.9 45.7,-2.7 91.3,-16.7 137,-25 45.7,-8.4 91.3,-11 114.2,-12.4 L 960,301 v 240 h -22.8 c -22.9,0 -68.5,0 -114.2,0 -45.7,0 -91.3,0 -137,0 -45.7,0 -91.3,0 -137.2,0 -45.8,0 -91.8,0 -137.6,0 -45.9,0 -91.5,0 -137.2,0 -45.7,0 -91.3,0 -137,0 -45.7,0 -91.3,0 -114.2,0 H 0 Z"
         fill="#0e67b4"
         id="path533" />
      <path
         d="m 0,338 22.8,6.3 c 22.9,6.4 68.5,19 114.2,17.5 45.7,-1.5 91.3,-17.1 137,-14.3 45.7,2.8 91.3,24.2 137.2,33 45.8,8.8 91.8,5.2 137.6,0.3 45.9,-4.8 91.5,-10.8 137.2,-9 45.7,1.9 91.3,11.5 137,9.7 45.7,-1.8 91.3,-15.2 114.2,-21.8 L 960,353 v 188 h -22.8 c -22.9,0 -68.5,0 -114.2,0 -45.7,0 -91.3,0 -137,0 -45.7,0 -91.3,0 -137.2,0 -45.8,0 -91.8,0 -137.6,0 -45.9,0 -91.5,0 -137.2,0 -45.7,0 -91.3,0 -137,0 -45.7,0 -91.3,0 -114.2,0 H 0 Z"
         fill="#0d60a7"
         id="path535" />
      <path
         d="m 0,399 22.8,2.7 c 22.9,2.6 68.5,8 114.2,1 45.7,-7 91.3,-26.4 137,-25.2 45.7,1.2 91.3,22.8 137.2,24.7 45.8,1.8 91.8,-16.2 137.6,-21.9 45.9,-5.6 91.5,1 137.2,2.5 45.7,1.5 91.3,-2.1 137,-4.6 45.7,-2.5 91.3,-3.9 114.2,-4.5 L 960,373 v 168 h -22.8 c -22.9,0 -68.5,0 -114.2,0 -45.7,0 -91.3,0 -137,0 -45.7,0 -91.3,0 -137.2,0 -45.8,0 -91.8,0 -137.6,0 -45.9,0 -91.5,0 -137.2,0 -45.7,0 -91.3,0 -137,0 -45.7,0 -91.3,0 -114.2,0 H 0 Z"
         fill="#0b599b"
         id="path537" />
      <path
         d="m 0,434 22.8,3.2 c 22.9,3.1 68.5,9.5 114.2,11.3 45.7,1.8 91.3,-0.8 137,-4.3 45.7,-3.5 91.3,-7.9 137.2,-6.9 45.8,1 91.8,7.4 137.6,2.7 45.9,-4.7 91.5,-20.3 137.2,-28.7 45.7,-8.3 91.3,-9.3 137,-5.3 45.7,4 91.3,13 114.2,17.5 L 960,428 v 113 h -22.8 c -22.9,0 -68.5,0 -114.2,0 -45.7,0 -91.3,0 -137,0 -45.7,0 -91.3,0 -137.2,0 -45.8,0 -91.8,0 -137.6,0 -45.9,0 -91.5,0 -137.2,0 -45.7,0 -91.3,0 -137,0 -45.7,0 -91.3,0 -114.2,0 H 0 Z"
         fill="#0b518f"
         id="path539" />
      <path
         d="m 0,478 22.8,1 c 22.9,1 68.5,3 114.2,-3 45.7,-6 91.3,-20 137,-29 45.7,-9 91.3,-13 137.2,-9.5 45.8,3.5 91.8,14.5 137.6,19.7 45.9,5.1 91.5,4.5 137.2,1.1 45.7,-3.3 91.3,-9.3 137,-14.1 45.7,-4.9 91.3,-8.5 114.2,-10.4 L 960,432 v 109 h -22.8 c -22.9,0 -68.5,0 -114.2,0 -45.7,0 -91.3,0 -137,0 -45.7,0 -91.3,0 -137.2,0 -45.8,0 -91.8,0 -137.6,0 -45.9,0 -91.5,0 -137.2,0 -45.7,0 -91.3,0 -137,0 -45.7,0 -91.3,0 -114.2,0 H 0 Z"
         fill="#0a4a83"
         id="path541" />
      <path
         d="m 0,494 22.8,1.3 c 22.9,1.4 68.5,4 114.2,3.4 45.7,-0.7 91.3,-4.7 137,-3 45.7,1.6 91.3,9 137.2,13 45.8,4 91.8,4.6 137.6,-2.2 45.9,-6.8 91.5,-21.2 137.2,-23.2 45.7,-2 91.3,8.4 137,13.9 45.7,5.5 91.3,6.1 114.2,6.5 L 960,504 v 37 h -22.8 c -22.9,0 -68.5,0 -114.2,0 -45.7,0 -91.3,0 -137,0 -45.7,0 -91.3,0 -137.2,0 -45.8,0 -91.8,0 -137.6,0 -45.9,0 -91.5,0 -137.2,0 -45.7,0 -91.3,0 -137,0 -45.7,0 -91.3,0 -114.2,0 H 0 Z"
         fill="#094377"
         id="path543" />
    </g>
    <g
       id="g774"
       transform="matrix(0.31719278,0,0,0.30506556,-2.621826,-29.978108)">
      <rect
         width="960"
         height="540"
         fill="#001220"
         id="rect559"
         x="0"
         y="0" />
      <g
         id="g697">
        <g
           transform="translate(38,337)"
           id="g563">
          <path
             d="m 0,-12.8 11.1,6.4 V 6.4 L 0,12.8 -11.1,6.4 V -6.4 Z"
             fill="#0e67b4"
             id="path561" />
        </g>
        <g
           transform="translate(398,80)"
           id="g567">
          <path
             d="m 0,-11 9.5,5.5 v 11 L 0,11 -9.5,5.5 v -11 z"
             fill="#0e67b4"
             id="path565" />
        </g>
        <g
           transform="translate(86,478)"
           id="g571">
          <path
             d="m 0,-9 7.8,4.5 v 9 L 0,9 -7.8,4.5 v -9 z"
             fill="#0e67b4"
             id="path569" />
        </g>
        <g
           transform="translate(92,20)"
           id="g575">
          <path
             d="m 0,-11 9.5,5.5 v 11 L 0,11 -9.5,5.5 v -11 z"
             fill="#0e67b4"
             id="path573" />
        </g>
        <g
           transform="translate(768,370)"
           id="g579">
          <path
             d="m 0,-11 9.5,5.5 v 11 L 0,11 -9.5,5.5 v -11 z"
             fill="#0e67b4"
             id="path577" />
        </g>
        <g
           transform="translate(680,496)"
           id="g583">
          <path
             d="m 0,-10 8.7,5 V 5 L 0,10 -8.7,5 V -5 Z"
             fill="#0e67b4"
             id="path581" />
        </g>
        <g
           transform="translate(885,232)"
           id="g587">
          <path
             d="m 0,-11 9.5,5.5 v 11 L 0,11 -9.5,5.5 v -11 z"
             fill="#0e67b4"
             id="path585" />
        </g>
        <g
           transform="translate(800,63)"
           id="g591">
          <path
             d="m 0,-9 7.8,4.5 v 9 L 0,9 -7.8,4.5 v -9 z"
             fill="#0e67b4"
             id="path589" />
        </g>
        <g
           transform="translate(556,217)"
           id="g595">
          <path
             d="m 0,-9 7.8,4.5 v 9 L 0,9 -7.8,4.5 v -9 z"
             fill="#0e67b4"
             id="path593" />
        </g>
        <g
           transform="translate(918,483)"
           id="g599">
          <path
             d="m 0,-10 8.7,5 V 5 L 0,10 -8.7,5 V -5 Z"
             fill="#0e67b4"
             id="path597" />
        </g>
        <g
           transform="translate(713,77)"
           id="g603">
          <path
             d="m 0,-11 9.5,5.5 v 11 L 0,11 -9.5,5.5 v -11 z"
             fill="#0e67b4"
             id="path601" />
        </g>
        <g
           transform="translate(580,408)"
           id="g607">
          <path
             d="m 0,-9 7.8,4.5 v 9 L 0,9 -7.8,4.5 v -9 z"
             fill="#0e67b4"
             id="path605" />
        </g>
        <g
           transform="translate(730,130)"
           id="g611">
          <path
             d="m 0,-10 8.7,5 V 5 L 0,10 -8.7,5 V -5 Z"
             fill="#0e67b4"
             id="path609" />
        </g>
        <g
           transform="translate(135,192)"
           id="g615">
          <path
             d="m 0,-9 7.8,4.5 v 9 L 0,9 -7.8,4.5 v -9 z"
             fill="#0e67b4"
             id="path613" />
        </g>
        <g
           transform="translate(266,27)"
           id="g619">
          <path
             d="m 0,-9 7.8,4.5 v 9 L 0,9 -7.8,4.5 v -9 z"
             fill="#0e67b4"
             id="path617" />
        </g>
        <g
           transform="translate(123,352)"
           id="g623">
          <path
             d="m 0,-9 7.8,4.5 v 9 L 0,9 -7.8,4.5 v -9 z"
             fill="#0e67b4"
             id="path621" />
        </g>
        <g
           transform="translate(312,13)"
           id="g627">
          <path
             d="m 0,-9 7.8,4.5 v 9 L 0,9 -7.8,4.5 v -9 z"
             fill="#0e67b4"
             id="path625" />
        </g>
        <g
           transform="translate(597,369)"
           id="g631">
          <path
             d="m 0,-10 8.7,5 V 5 L 0,10 -8.7,5 V -5 Z"
             fill="#0e67b4"
             id="path629" />
        </g>
        <g
           transform="translate(830,135)"
           id="g635">
          <path
             d="m 0,-11 9.5,5.5 v 11 L 0,11 -9.5,5.5 v -11 z"
             fill="#0e67b4"
             id="path633" />
        </g>
        <g
           transform="translate(926,113)"
           id="g639">
          <path
             d="m 0,-10 8.7,5 V 5 L 0,10 -8.7,5 V -5 Z"
             fill="#0e67b4"
             id="path637" />
        </g>
        <g
           transform="translate(203,399)"
           id="g643">
          <path
             d="m 0,-9 7.8,4.5 v 9 L 0,9 -7.8,4.5 v -9 z"
             fill="#0e67b4"
             id="path641" />
        </g>
        <g
           transform="translate(700,381)"
           id="g647">
          <path
             d="m 0,-11 9.5,5.5 v 11 L 0,11 -9.5,5.5 v -11 z"
             fill="#0e67b4"
             id="path645" />
        </g>
        <g
           transform="translate(705,297)"
           id="g651">
          <path
             d="m 0,-11 9.5,5.5 v 11 L 0,11 -9.5,5.5 v -11 z"
             fill="#0e67b4"
             id="path649" />
        </g>
        <g
           transform="translate(189,340)"
           id="g655">
          <path
             d="m 0,-10 8.7,5 V 5 L 0,10 -8.7,5 V -5 Z"
             fill="#0e67b4"
             id="path653" />
        </g>
        <g
           transform="translate(404,350)"
           id="g659">
          <path
             d="m 0,-10 8.7,5 V 5 L 0,10 -8.7,5 V -5 Z"
             fill="#0e67b4"
             id="path657" />
        </g>
        <g
           transform="translate(458,86)"
           id="g663">
          <path
             d="m 0,-11 9.5,5.5 v 11 L 0,11 -9.5,5.5 v -11 z"
             fill="#0e67b4"
             id="path661" />
        </g>
        <g
           transform="translate(82,356)"
           id="g667">
          <path
             d="m 0,-9 7.8,4.5 v 9 L 0,9 -7.8,4.5 v -9 z"
             fill="#0e67b4"
             id="path665" />
        </g>
        <g
           transform="translate(503,314)"
           id="g671">
          <path
             d="m 0,-9 7.8,4.5 v 9 L 0,9 -7.8,4.5 v -9 z"
             fill="#0e67b4"
             id="path669" />
        </g>
        <g
           transform="translate(426,440)"
           id="g675">
          <path
             d="m 0,-10 8.7,5 V 5 L 0,10 -8.7,5 V -5 Z"
             fill="#0e67b4"
             id="path673" />
        </g>
        <g
           transform="translate(139,112)"
           id="g679">
          <path
             d="m 0,-11 9.5,5.5 v 11 L 0,11 -9.5,5.5 v -11 z"
             fill="#0e67b4"
             id="path677" />
        </g>
        <g
           transform="translate(822,288)"
           id="g683">
          <path
             d="m 0,-9 7.8,4.5 v 9 L 0,9 -7.8,4.5 v -9 z"
             fill="#0e67b4"
             id="path681" />
        </g>
        <g
           transform="translate(234,274)"
           id="g687">
          <path
             d="m 0,-11 9.5,5.5 v 11 L 0,11 -9.5,5.5 v -11 z"
             fill="#0e67b4"
             id="path685" />
        </g>
        <g
           transform="translate(63,278)"
           id="g691">
          <path
             d="m 0,-9 7.8,4.5 v 9 L 0,9 -7.8,4.5 v -9 z"
             fill="#0e67b4"
             id="path689" />
        </g>
        <g
           transform="translate(640,281)"
           id="g695">
          <path
             d="m 0,-11 9.5,5.5 v 11 L 0,11 -9.5,5.5 v -11 z"
             fill="#0e67b4"
             id="path693" />
        </g>
      </g>
    </g>
  </g>
</svg>
