<svg id="visual" viewBox="0 0 960 540" width="960" height="540" xmlns="http://www.w3.org/2000/svg" xmlns:xlink="http://www.w3.org/1999/xlink" version="1.1"><rect x="0" y="0" width="960" height="540" fill="#001220"></rect><path d="M0 332L22.8 336C45.7 340 91.3 348 137 351.3C182.7 354.7 228.3 353.3 274 346.7C319.7 340 365.3 328 411.2 323.5C457 319 503 322 548.8 327.8C594.7 333.7 640.3 342.3 686 339.7C731.7 337 777.3 323 823 314.7C868.7 306.3 914.3 303.7 937.2 302.3L960 301L960 541L937.2 541C914.3 541 868.7 541 823 541C777.3 541 731.7 541 686 541C640.3 541 594.7 541 548.8 541C503 541 457 541 411.2 541C365.3 541 319.7 541 274 541C228.3 541 182.7 541 137 541C91.3 541 45.7 541 22.8 541L0 541Z" fill="#0e67b4"></path><path d="M0 338L22.8 344.3C45.7 350.7 91.3 363.3 137 361.8C182.7 360.3 228.3 344.7 274 347.5C319.7 350.3 365.3 371.7 411.2 380.5C457 389.3 503 385.7 548.8 380.8C594.7 376 640.3 370 686 371.8C731.7 373.7 777.3 383.3 823 381.5C868.7 379.7 914.3 366.3 937.2 359.7L960 353L960 541L937.2 541C914.3 541 868.7 541 823 541C777.3 541 731.7 541 686 541C640.3 541 594.7 541 548.8 541C503 541 457 541 411.2 541C365.3 541 319.7 541 274 541C228.3 541 182.7 541 137 541C91.3 541 45.7 541 22.8 541L0 541Z" fill="#0d60a7"></path><path d="M0 399L22.8 401.7C45.7 404.3 91.3 409.7 137 402.7C182.7 395.7 228.3 376.3 274 377.5C319.7 378.7 365.3 400.3 411.2 402.2C457 404 503 386 548.8 380.3C594.7 374.7 640.3 381.3 686 382.8C731.7 384.3 777.3 380.7 823 378.2C868.7 375.7 914.3 374.3 937.2 373.7L960 373L960 541L937.2 541C914.3 541 868.7 541 823 541C777.3 541 731.7 541 686 541C640.3 541 594.7 541 548.8 541C503 541 457 541 411.2 541C365.3 541 319.7 541 274 541C228.3 541 182.7 541 137 541C91.3 541 45.7 541 22.8 541L0 541Z" fill="#0b599b"></path><path d="M0 434L22.8 437.2C45.7 440.3 91.3 446.7 137 448.5C182.7 450.3 228.3 447.7 274 444.2C319.7 440.7 365.3 436.3 411.2 437.3C457 438.3 503 444.7 548.8 440C594.7 435.3 640.3 419.7 686 411.3C731.7 403 777.3 402 823 406C868.7 410 914.3 419 937.2 423.5L960 428L960 541L937.2 541C914.3 541 868.7 541 823 541C777.3 541 731.7 541 686 541C640.3 541 594.7 541 548.8 541C503 541 457 541 411.2 541C365.3 541 319.7 541 274 541C228.3 541 182.7 541 137 541C91.3 541 45.7 541 22.8 541L0 541Z" fill="#0b518f"></path><path d="M0 478L22.8 479C45.7 480 91.3 482 137 476C182.7 470 228.3 456 274 447C319.7 438 365.3 434 411.2 437.5C457 441 503 452 548.8 457.2C594.7 462.3 640.3 461.7 686 458.3C731.7 455 777.3 449 823 444.2C868.7 439.3 914.3 435.7 937.2 433.8L960 432L960 541L937.2 541C914.3 541 868.7 541 823 541C777.3 541 731.7 541 686 541C640.3 541 594.7 541 548.8 541C503 541 457 541 411.2 541C365.3 541 319.7 541 274 541C228.3 541 182.7 541 137 541C91.3 541 45.7 541 22.8 541L0 541Z" fill="#0a4a83"></path><path d="M0 494L22.8 495.3C45.7 496.7 91.3 499.3 137 498.7C182.7 498 228.3 494 274 495.7C319.7 497.3 365.3 504.7 411.2 508.7C457 512.7 503 513.3 548.8 506.5C594.7 499.7 640.3 485.3 686 483.3C731.7 481.3 777.3 491.7 823 497.2C868.7 502.7 914.3 503.3 937.2 503.7L960 504L960 541L937.2 541C914.3 541 868.7 541 823 541C777.3 541 731.7 541 686 541C640.3 541 594.7 541 548.8 541C503 541 457 541 411.2 541C365.3 541 319.7 541 274 541C228.3 541 182.7 541 137 541C91.3 541 45.7 541 22.8 541L0 541Z" fill="#094377"></path></svg>