<svg id="visual" viewBox="0 0 900 600" width="900" height="600" xmlns="http://www.w3.org/2000/svg" xmlns:xlink="http://www.w3.org/1999/xlink" version="1.1"><rect x="0" y="0" width="900" height="600" fill="#001220"></rect><path d="M0 365L21.5 365.7C43 366.3 86 367.7 128.8 362.7C171.7 357.7 214.3 346.3 257.2 343C300 339.7 343 344.3 385.8 342.3C428.7 340.3 471.3 331.7 514.2 333.3C557 335 600 347 642.8 347.7C685.7 348.3 728.3 337.7 771.2 333.3C814 329 857 331 878.5 332L900 333L900 601L878.5 601C857 601 814 601 771.2 601C728.3 601 685.7 601 642.8 601C600 601 557 601 514.2 601C471.3 601 428.7 601 385.8 601C343 601 300 601 257.2 601C214.3 601 171.7 601 128.8 601C86 601 43 601 21.5 601L0 601Z" fill="#0066ff"></path><path d="M0 359L21.5 362.3C43 365.7 86 372.3 128.8 380.8C171.7 389.3 214.3 399.7 257.2 397C300 394.3 343 378.7 385.8 381C428.7 383.3 471.3 403.7 514.2 405.3C557 407 600 390 642.8 382.5C685.7 375 728.3 377 771.2 376.7C814 376.3 857 373.7 878.5 372.3L900 371L900 601L878.5 601C857 601 814 601 771.2 601C728.3 601 685.7 601 642.8 601C600 601 557 601 514.2 601C471.3 601 428.7 601 385.8 601C343 601 300 601 257.2 601C214.3 601 171.7 601 128.8 601C86 601 43 601 21.5 601L0 601Z" fill="#0077ff"></path><path d="M0 420L21.5 419.8C43 419.7 86 419.3 128.8 421.8C171.7 424.3 214.3 429.7 257.2 434.2C300 438.7 343 442.3 385.8 446.8C428.7 451.3 471.3 456.7 514.2 457.2C557 457.7 600 453.3 642.8 452.7C685.7 452 728.3 455 771.2 449.7C814 444.3 857 430.7 878.5 423.8L900 417L900 601L878.5 601C857 601 814 601 771.2 601C728.3 601 685.7 601 642.8 601C600 601 557 601 514.2 601C471.3 601 428.7 601 385.8 601C343 601 300 601 257.2 601C214.3 601 171.7 601 128.8 601C86 601 43 601 21.5 601L0 601Z" fill="#0087ff"></path><path d="M0 466L21.5 468C43 470 86 474 128.8 474.5C171.7 475 214.3 472 257.2 469.8C300 467.7 343 466.3 385.8 470.5C428.7 474.7 471.3 484.3 514.2 492.8C557 501.3 600 508.7 642.8 513C685.7 517.3 728.3 518.7 771.2 518C814 517.3 857 514.7 878.5 513.3L900 512L900 601L878.5 601C857 601 814 601 771.2 601C728.3 601 685.7 601 642.8 601C600 601 557 601 514.2 601C471.3 601 428.7 601 385.8 601C343 601 300 601 257.2 601C214.3 601 171.7 601 128.8 601C86 601 43 601 21.5 601L0 601Z" fill="#0096ff"></path><path d="M0 528L21.5 529.5C43 531 86 534 128.8 531.7C171.7 529.3 214.3 521.7 257.2 522.2C300 522.7 343 531.3 385.8 533C428.7 534.7 471.3 529.3 514.2 529C557 528.7 600 533.3 642.8 537.8C685.7 542.3 728.3 546.7 771.2 551.7C814 556.7 857 562.3 878.5 565.2L900 568L900 601L878.5 601C857 601 814 601 771.2 601C728.3 601 685.7 601 642.8 601C600 601 557 601 514.2 601C471.3 601 428.7 601 385.8 601C343 601 300 601 257.2 601C214.3 601 171.7 601 128.8 601C86 601 43 601 21.5 601L0 601Z" fill="#01a3ff"></path></svg>