<svg id="visual" viewBox="0 0 900 600" width="900" height="600" xmlns="http://www.w3.org/2000/svg" xmlns:xlink="http://www.w3.org/1999/xlink" version="1.1"><rect x="0" y="0" width="900" height="600" fill="#002233"></rect><path d="M0 244L25 249.3C50 254.7 100 265.3 150 281.8C200 298.3 250 320.7 300 321.2C350 321.7 400 300.3 450 291.8C500 283.3 550 287.7 600 296C650 304.3 700 316.7 750 322.2C800 327.7 850 326.3 875 325.7L900 325L900 601L875 601C850 601 800 601 750 601C700 601 650 601 600 601C550 601 500 601 450 601C400 601 350 601 300 601C250 601 200 601 150 601C100 601 50 601 25 601L0 601Z" fill="#0066FF" stroke-linecap="round" stroke-linejoin="miter"></path></svg>